<svg width="77" height="40" viewBox="0 0 77 40" fill="none" xmlns="http://www.w3.org/2000/svg">
<path fill-rule="evenodd" clip-rule="evenodd" d="M75.3753 19.2092C69.568 18.6284 57.2827 14.1256 54.3193 0.888916L52.7652 1.23686C55.058 11.4782 62.5315 16.801 68.8219 19.2028H1.62411V19.2052H1.62256V20.7978H68.8238C62.5334 23.1996 55.0599 28.5225 52.7671 38.7638L54.3212 39.1117C57.2847 25.875 69.5699 21.3722 75.3772 20.7915L75.3368 19.9811L75.3753 19.2092Z" fill="#EDB748"/>
<path d="M54.3193 0.888916L55.0963 0.714946C55.0502 0.508856 54.9241 0.329535 54.7457 0.216433C54.5674 0.10333 54.3514 0.0657113 54.1453 0.111851L54.3193 0.888916ZM75.3753 19.2092L76.1706 19.2488C76.1917 18.825 75.8768 18.459 75.4545 18.4168L75.3753 19.2092ZM52.7652 1.23686L52.5912 0.459791C52.162 0.555872 51.892 0.981664 51.9881 1.41083L52.7652 1.23686ZM68.8219 19.2028V19.9991C69.206 19.9991 69.5353 19.725 69.605 19.3472C69.6747 18.9695 69.4648 18.5959 69.1059 18.4589L68.8219 19.2028ZM1.62411 19.2028V18.4065C1.18433 18.4065 0.827813 18.763 0.827813 19.2028H1.62411ZM1.62411 19.2052V20.0015C2.0639 20.0015 2.42041 19.645 2.42041 19.2052H1.62411ZM1.62256 19.2052V18.4089C1.18277 18.4089 0.826257 18.7654 0.826257 19.2052H1.62256ZM1.62256 20.7978H0.826257C0.826257 21.2376 1.18277 21.5941 1.62256 21.5941L1.62256 20.7978ZM68.8238 20.7978L69.1079 21.5417C69.4667 21.4047 69.6766 21.0311 69.6069 20.6534C69.5373 20.2757 69.2079 20.0015 68.8238 20.0015V20.7978ZM52.7671 38.7638L51.99 38.5898C51.9439 38.7959 51.9815 39.0119 52.0946 39.1902C52.2077 39.3686 52.387 39.4947 52.5931 39.5408L52.7671 38.7638ZM54.3212 39.1117L54.1472 39.8888C54.5764 39.9849 55.0022 39.7148 55.0983 39.2857L54.3212 39.1117ZM75.3772 20.7915L75.4564 21.5838C75.8787 21.5416 76.1936 21.1756 76.1725 20.7518L75.3772 20.7915ZM75.3368 19.9811L74.5415 19.9414C74.5401 19.9679 74.5401 19.9943 74.5415 20.0208L75.3368 19.9811ZM53.5422 1.06289C56.6132 14.78 69.3235 19.4043 75.296 20.0015L75.4545 18.4168C69.8125 17.8526 57.9522 13.4713 55.0963 0.714946L53.5422 1.06289ZM52.9391 2.01392L54.4932 1.66598L54.1453 0.111851L52.5912 0.459791L52.9391 2.01392ZM69.1059 18.4589C62.9717 16.1167 55.7578 10.9592 53.5422 1.06289L51.9881 1.41083C54.3582 11.9972 62.0913 17.4853 68.5379 19.9467L69.1059 18.4589ZM68.8219 18.4065H1.62411V19.9991H68.8219V18.4065ZM0.827813 19.2028V19.2052H2.42041V19.2028H0.827813ZM1.62256 20.0015H1.62411V18.4089H1.62256V20.0015ZM2.41886 20.7978V19.2052H0.826257V20.7978H2.41886ZM68.8238 20.0015H1.62256V21.5941H68.8238V20.0015ZM68.5398 20.0539C62.0932 22.5153 54.3601 28.0035 51.99 38.5898L53.5441 38.9377C55.7597 29.0415 62.9737 23.8839 69.1079 21.5417L68.5398 20.0539ZM52.5931 39.5408L54.1472 39.8888L54.4952 38.3346L52.941 37.9867L52.5931 39.5408ZM55.0983 39.2857C57.9542 26.5293 69.8144 22.148 75.4564 21.5838L75.2979 19.9991C69.3254 20.5964 56.6151 25.2207 53.5441 38.9377L55.0983 39.2857ZM76.1725 20.7518L76.1321 19.9414L74.5415 20.0208L74.5819 20.8311L76.1725 20.7518ZM74.58 19.1695L74.5415 19.9414L76.1321 20.0208L76.1706 19.2488L74.58 19.1695Z" fill="#EDB748"/>
</svg>
