<svg width="48" height="26" viewBox="0 0 48 26" fill="none" xmlns="http://www.w3.org/2000/svg">
<path fill-rule="evenodd" clip-rule="evenodd" d="M47.3096 12.5033C43.6632 12.1387 35.9492 9.31138 34.0884 1L33.1126 1.21847C34.5522 7.64873 39.2445 10.991 43.1941 12.4992H1.00097V12.5009H1V13.5009H43.1953C39.2457 15.009 34.5534 18.3513 33.1138 24.7815L34.0896 25C35.9504 16.6886 43.6644 13.8613 47.3108 13.4967L47.2854 12.988L47.3096 12.5033Z" fill="white" fill-opacity="0.9"/>
<path d="M34.0884 1L34.5764 0.890764C34.5474 0.761359 34.4682 0.648763 34.3562 0.577746C34.2442 0.506728 34.1086 0.483107 33.9792 0.512078L34.0884 1ZM47.3096 12.5033L47.8089 12.5282C47.8222 12.2621 47.6245 12.0323 47.3593 12.0058L47.3096 12.5033ZM33.1126 1.21847L33.0034 0.730551C32.7339 0.79088 32.5643 1.05824 32.6247 1.32771L33.1126 1.21847ZM43.1941 12.4992V12.9992C43.4353 12.9992 43.6421 12.827 43.6859 12.5898C43.7296 12.3527 43.5978 12.1181 43.3725 12.032L43.1941 12.4992ZM1.00097 12.4992V11.9992C0.724831 11.9992 0.500973 12.223 0.500973 12.4992H1.00097ZM1.00097 12.5009V13.0009C1.27712 13.0009 1.50097 12.777 1.50097 12.5009H1.00097ZM1 12.5009V12.0009C0.723858 12.0009 0.5 12.2247 0.5 12.5009H1ZM1 13.5009H0.5C0.5 13.777 0.723858 14.0009 1 14.0009V13.5009ZM43.1953 13.5009L43.3737 13.968C43.599 13.8819 43.7308 13.6473 43.6871 13.4102C43.6433 13.173 43.4365 13.0009 43.1953 13.0009V13.5009ZM33.1138 24.7815L32.6259 24.6723C32.5969 24.8017 32.6205 24.9373 32.6915 25.0493C32.7626 25.1613 32.8752 25.2405 33.0046 25.2695L33.1138 24.7815ZM34.0896 25L33.9804 25.4879C34.2499 25.5483 34.5172 25.3787 34.5776 25.1092L34.0896 25ZM47.3108 13.4967L47.3605 13.9942C47.6257 13.9677 47.8234 13.7379 47.8101 13.4718L47.3108 13.4967ZM47.2854 12.988L46.786 12.9631C46.7852 12.9797 46.7852 12.9963 46.786 13.0129L47.2854 12.988ZM33.6005 1.10924C35.5288 9.72224 43.5096 12.6258 47.2598 13.0009L47.3593 12.0058C43.8167 11.6516 36.3696 8.90053 34.5764 0.890764L33.6005 1.10924ZM33.2218 1.70639L34.1977 1.48792L33.9792 0.512078L33.0034 0.730551L33.2218 1.70639ZM43.3725 12.032C39.5209 10.5613 34.9916 7.32286 33.6005 1.10924L32.6247 1.32771C34.1128 7.9746 38.9681 11.4206 43.0158 12.9663L43.3725 12.032ZM43.1941 11.9992H1.00097V12.9992H43.1941V11.9992ZM0.500973 12.4992V12.5009H1.50097V12.4992H0.500973ZM1 13.0009H1.00097V12.0009H1V13.0009ZM1.5 13.5009V12.5009H0.5V13.5009H1.5ZM43.1953 13.0009H1V14.0009H43.1953V13.0009ZM43.017 13.0338C38.9693 14.5794 34.114 18.0254 32.6259 24.6723L33.6017 24.8908C34.9928 18.6771 39.5221 15.4387 43.3737 13.968L43.017 13.0338ZM33.0046 25.2695L33.9804 25.4879L34.1989 24.5121L33.223 24.2936L33.0046 25.2695ZM34.5776 25.1092C36.3708 17.0995 43.8179 14.3485 47.3605 13.9942L47.261 12.9992C43.5108 13.3742 35.53 16.2778 33.6017 24.8908L34.5776 25.1092ZM47.8101 13.4718L47.7848 12.9631L46.786 13.0129L46.8114 13.5216L47.8101 13.4718ZM46.8102 12.4784L46.786 12.9631L47.7848 13.0129L47.8089 12.5282L46.8102 12.4784Z" fill="white" fill-opacity="0.9"/>
</svg>
