<svg width="79" height="86" viewBox="0 0 79 86" fill="none" xmlns="http://www.w3.org/2000/svg">
<path fill-rule="evenodd" clip-rule="evenodd" d="M2.62473 42.2092C8.43198 41.6284 20.7173 37.1256 23.6807 23.8889L25.2348 24.2369C22.9421 34.4778 15.4691 39.8006 9.17886 42.2025H76.3759V42.2052H76.3774V43.7978H9.17695C15.4672 46.1997 22.9402 51.5226 25.2329 61.7635L23.6788 62.1114C20.7153 48.8747 8.43007 44.3719 2.62282 43.7912L2.66322 42.981L2.62473 42.2092Z" fill="white" fill-opacity="0.9"/>
<path d="M23.6807 23.8889L22.9037 23.7149C22.9498 23.5089 23.0759 23.3295 23.2543 23.2164C23.4326 23.1033 23.6486 23.0657 23.8547 23.1119L23.6807 23.8889ZM2.62473 42.2092L1.82942 42.2488C1.80828 41.825 2.12324 41.459 2.5455 41.4168L2.62473 42.2092ZM25.2348 24.2369L25.4088 23.4598C25.838 23.5559 26.108 23.9817 26.0119 24.4108L25.2348 24.2369ZM9.17886 42.2025V42.9988C8.79478 42.9988 8.46543 42.7247 8.39577 42.347C8.32611 41.9692 8.53599 41.5956 8.8948 41.4586L9.17886 42.2025ZM76.3759 42.2025V41.4062C76.8157 41.4062 77.1722 41.7627 77.1722 42.2025H76.3759ZM76.3759 42.2052V43.0015C75.9361 43.0015 75.5796 42.645 75.5796 42.2052H76.3759ZM76.3774 42.2052V41.4089C76.8172 41.4089 77.1737 41.7654 77.1737 42.2052H76.3774ZM76.3774 43.7978H77.1737C77.1737 44.2376 76.8172 44.5941 76.3774 44.5941V43.7978ZM9.17695 43.7978L8.89288 44.5417C8.53407 44.4047 8.3242 44.0311 8.39385 43.6534C8.46352 43.2757 8.79287 43.0015 9.17695 43.0015V43.7978ZM25.2329 61.7635L26.01 61.5895C26.0561 61.7956 26.0185 62.0116 25.9054 62.1899C25.7923 62.3683 25.613 62.4944 25.4069 62.5405L25.2329 61.7635ZM23.6788 62.1114L23.8528 62.8885C23.4236 62.9846 22.9978 62.7145 22.9017 62.2854L23.6788 62.1114ZM2.62282 43.7912L2.54359 44.5835C2.12132 44.5413 1.80637 44.1754 1.82751 43.7515L2.62282 43.7912ZM2.66322 42.981L3.45853 42.9413C3.45985 42.9677 3.45985 42.9942 3.45853 43.0206L2.66322 42.981ZM24.4578 24.0629C21.3868 37.78 8.6765 42.4043 2.70397 43.0015L2.5455 41.4168C8.18747 40.8526 20.0478 36.4713 22.9037 23.7149L24.4578 24.0629ZM25.0609 25.0139L23.5068 24.666L23.8547 23.1119L25.4088 23.4598L25.0609 25.0139ZM8.8948 41.4586C15.0288 39.1163 22.2423 33.9588 24.4578 24.0629L26.0119 24.4108C23.6419 34.9967 15.9093 40.4849 9.46293 42.9464L8.8948 41.4586ZM9.17886 41.4062H76.3759V42.9988H9.17886V41.4062ZM77.1722 42.2025V42.2052H75.5796V42.2025H77.1722ZM76.3774 43.0015H76.3759V41.4089H76.3774V43.0015ZM75.5811 43.7978V42.2052H77.1737V43.7978H75.5811ZM9.17695 43.0015H76.3774V44.5941H9.17695V43.0015ZM9.46101 43.0539C15.9074 45.5155 23.64 51.0036 26.01 61.5895L24.4559 61.9374C22.2404 52.0416 15.0269 46.884 8.89288 44.5417L9.46101 43.0539ZM25.4069 62.5405L23.8528 62.8885L23.5048 61.3344L25.059 60.9864L25.4069 62.5405ZM22.9017 62.2854C20.0458 49.529 8.18555 45.1477 2.54359 44.5835L2.70206 42.9988C8.67458 43.5961 21.3849 48.2204 24.4559 61.9374L22.9017 62.2854ZM1.82751 43.7515L1.86791 42.9413L3.45853 43.0206L3.41813 43.8308L1.82751 43.7515ZM3.42004 42.1695L3.45853 42.9413L1.86791 43.0206L1.82942 42.2488L3.42004 42.1695Z" fill="white" fill-opacity="0.9"/>
</svg>
