<svg width="16" height="16" viewBox="0 0 16 16" fill="none" xmlns="http://www.w3.org/2000/svg">
<path d="M12.7334 9.95302C12.5263 10.1644 12.4311 10.47 12.4783 10.7698L13.1894 14.9127C13.2494 15.2638 13.1086 15.6192 12.8294 15.8221C12.5559 16.0326 12.1919 16.0579 11.8935 15.8895L8.35081 13.9443C8.22762 13.8753 8.09084 13.8382 7.95086 13.834H7.73409C7.6589 13.8458 7.58531 13.8711 7.51812 13.9098L3.97458 15.8642C3.7994 15.9568 3.60103 15.9897 3.40666 15.9568C2.93312 15.8625 2.61716 15.3876 2.69475 14.8866L3.40666 10.7437C3.45385 10.4414 3.35866 10.1341 3.15149 9.91934L0.263066 6.97217C0.0214978 6.72545 -0.0624912 6.35494 0.0478944 6.02065C0.15508 5.6872 0.428645 5.44385 0.759001 5.38911L4.73448 4.782C5.03684 4.74916 5.30241 4.55549 5.43839 4.26919L7.19016 0.488388C7.23176 0.404184 7.28535 0.326715 7.35014 0.261035L7.42213 0.202092C7.45973 0.158305 7.50292 0.122097 7.55091 0.0926254L7.6381 0.0589434L7.77408 0H8.11084C8.4116 0.0328399 8.67637 0.222301 8.81475 0.505229L10.5897 4.26919C10.7177 4.54454 10.9665 4.73568 11.2536 4.782L15.2291 5.38911C15.5651 5.43964 15.8458 5.68383 15.957 6.02065C16.0618 6.35831 15.9714 6.72881 15.725 6.97217L12.7334 9.95302Z" fill="#FFD111"/>
</svg>
